<svg viewBox="0 0 1200 280" xmlns="http://www.w3.org/2000/svg">
  <defs>
    <linearGradient id="bg" x1="0" y1="0" x2="1" y2="1">
      <stop offset="0%" stop-color="#05070B"/>
      <stop offset="100%" stop-color="#080D14"/>
    </linearGradient>

    <radialGradient id="glow" cx="82%" cy="30%" r="55%">
      <stop offset="0%" stop-color="#00D9FF" stop-opacity="0.22"/>
      <stop offset="60%" stop-color="#00D9FF" stop-opacity="0.05"/>
      <stop offset="100%" stop-color="#00D9FF" stop-opacity="0"/>
    </radialGradient>

    <pattern id="dots" width="26" height="26" patternUnits="userSpaceOnUse">
      <circle cx="1.2" cy="1.2" r="1.2" fill="#1C2A38"/>
    </pattern>

    <linearGradient id="fade" x1="0" y1="0" x2="0" y2="1">
      <stop offset="0%" stop-color="#05070B" stop-opacity="0"/>
      <stop offset="100%" stop-color="#05070B" stop-opacity="1"/>
    </linearGradient>
  </defs>

  <rect width="1200" height="280" fill="url(#bg)"/>
  <rect width="1200" height="280" fill="url(#dots)"/>
  <rect width="1200" height="280" fill="url(#glow)"/>
  <rect width="1200" height="280" fill="url(#fade)" opacity="0.35"/>

  <line x1="60" y1="46" x2="1140" y2="46" stroke="#16222E" stroke-width="1"/>
  <g stroke="#233444" stroke-width="1">
    <line x1="60" y1="42" x2="60" y2="50"/>
    <line x1="1140" y1="42" x2="1140" y2="50"/>
  </g>

  <text x="60" y="34" font-family="'Fira Code', 'Courier New', monospace" font-size="13" letter-spacing="3" fill="#3E9CB0">
    // KAUSHIK.DEV — DATA SCIENCE &amp; AI
  </text>

  <text x="60" y="140" font-family="'Segoe UI', Arial, sans-serif" font-size="58" font-weight="700" fill="#EAF6FA" letter-spacing="0.5">
    Kaushik Kadari
  </text>

  <text x="60" y="180" font-family="'Fira Code', 'Courier New', monospace" font-size="19" fill="#00D9FF">
    Data Scientist · AI / ML Engineer · Builder
  </text>

  <rect x="60" y="196" width="120" height="3" rx="1.5" fill="#00D9FF"/>
  <rect x="186" y="196" width="28" height="3" rx="1.5" fill="#0B3D4C"/>

  <line x1="60" y1="234" x2="1140" y2="234" stroke="#16222E" stroke-width="1"/>
  <g stroke="#233444" stroke-width="1">
    <line x1="60" y1="230" x2="60" y2="238"/>
    <line x1="1140" y1="230" x2="1140" y2="238"/>
  </g>
  <text x="1140" y="254" text-anchor="end" font-family="'Fira Code', 'Courier New', monospace" font-size="12" letter-spacing="2" fill="#2C4353">
    github.com/Kaushikkadari
  </text>
</svg>
